<svg width="1200" height="400" viewBox="0 0 1200 400" fill="none" xmlns="http://www.w3.org/2000/svg">
<rect width="1200" height="400" rx="25" fill="#101010"/>
<path d="M387.304 226.566L412.072 157.446H424.744L401.992 226.566H387.304ZM437.992 226.566L415.336 157.446H428.584L453.352 226.566H437.992ZM400.36 199.782H439.144V211.302H400.36V199.782ZM461.448 226.566V177.606H475.56V189.126H475.848V226.566H461.448ZM495.528 226.566V196.23C495.528 193.542 494.824 191.526 493.416 190.182C492.072 188.838 490.088 188.166 487.464 188.166C485.224 188.166 483.208 188.678 481.416 189.702C479.688 190.726 478.312 192.134 477.288 193.926C476.328 195.718 475.848 197.83 475.848 200.262L474.6 188.454C476.2 184.87 478.536 182.022 481.608 179.91C484.744 177.734 488.584 176.646 493.128 176.646C498.568 176.646 502.728 178.182 505.608 181.254C508.488 184.262 509.927 188.326 509.927 193.446V226.566H495.528ZM520.323 226.566V177.606H534.723V226.566H520.323ZM519.843 171.078V155.526H535.203V171.078H519.843ZM546.198 226.566V177.606H560.31V189.126H560.598V226.566H546.198ZM579.126 226.566V195.462C579.126 192.966 578.454 191.142 577.11 189.99C575.83 188.774 574.006 188.166 571.638 188.166C569.59 188.166 567.702 188.646 565.974 189.606C564.31 190.502 562.998 191.814 562.038 193.542C561.078 195.206 560.598 197.19 560.598 199.494L559.35 188.454C560.95 184.87 563.254 182.022 566.262 179.91C569.334 177.734 573.014 176.646 577.302 176.646C582.422 176.646 586.39 178.086 589.206 180.966C592.086 183.846 593.526 187.462 593.526 191.814V226.566H579.126ZM612.054 226.566V195.462C612.054 192.966 611.382 191.142 610.038 189.99C608.758 188.774 606.934 188.166 604.566 188.166C602.518 188.166 600.63 188.646 598.902 189.606C597.238 190.502 595.926 191.814 594.966 193.542C594.006 195.206 593.526 197.19 593.526 199.494L591.318 188.454C592.918 184.87 595.286 182.022 598.422 179.91C601.622 177.734 605.462 176.646 609.942 176.646C615.254 176.646 619.318 178.15 622.134 181.158C625.014 184.102 626.454 187.974 626.454 192.774V226.566H612.054ZM667.014 226.566C666.63 225.158 666.342 223.654 666.15 222.054C666.022 220.454 665.958 218.598 665.958 216.486H665.574V193.35C665.574 191.366 664.902 189.83 663.558 188.742C662.278 187.59 660.358 187.014 657.798 187.014C655.366 187.014 653.414 187.43 651.942 188.262C650.534 189.094 649.606 190.31 649.158 191.91H635.43C636.07 187.494 638.342 183.846 642.246 180.966C646.15 178.086 651.494 176.646 658.278 176.646C665.318 176.646 670.694 178.214 674.406 181.35C678.118 184.486 679.974 188.998 679.974 194.886V216.486C679.974 218.086 680.07 219.718 680.262 221.382C680.518 222.982 680.902 224.71 681.414 226.566H667.014ZM649.926 227.526C645.062 227.526 641.19 226.31 638.31 223.878C635.43 221.382 633.99 218.086 633.99 213.99C633.99 209.446 635.686 205.798 639.078 203.046C642.534 200.23 647.334 198.406 653.478 197.574L667.782 195.558V203.91L655.878 205.734C653.318 206.118 651.43 206.822 650.214 207.846C648.998 208.87 648.39 210.278 648.39 212.07C648.39 213.67 648.966 214.886 650.118 215.718C651.27 216.55 652.806 216.966 654.726 216.966C657.734 216.966 660.294 216.166 662.406 214.566C664.518 212.902 665.574 210.982 665.574 208.806L666.918 216.486C665.51 220.134 663.366 222.886 660.486 224.742C657.606 226.598 654.086 227.526 649.926 227.526ZM710.898 227.622C704.626 227.622 699.954 226.118 696.882 223.11C693.874 220.038 692.37 215.398 692.37 209.19V166.662L706.77 161.286V209.67C706.77 211.846 707.378 213.478 708.594 214.566C709.81 215.654 711.698 216.198 714.258 216.198C715.218 216.198 716.114 216.102 716.946 215.91C717.778 215.718 718.61 215.494 719.442 215.238V226.182C718.61 226.63 717.426 226.982 715.89 227.238C714.418 227.494 712.754 227.622 710.898 227.622ZM683.25 188.55V177.606H719.442V188.55H683.25ZM728.073 226.566V177.606H742.185V189.126H742.473V226.566H728.073ZM742.473 201.03L741.225 189.414C742.377 185.254 744.265 182.086 746.889 179.91C749.513 177.734 752.777 176.646 756.681 176.646C757.897 176.646 758.793 176.774 759.369 177.03V190.47C759.049 190.342 758.601 190.278 758.025 190.278C757.449 190.214 756.745 190.182 755.913 190.182C751.305 190.182 747.913 191.014 745.737 192.678C743.561 194.278 742.473 197.062 742.473 201.03ZM770.6 246.246L784.136 216.294L786.632 212.166L799.304 177.606H814.664L785 246.246H770.6ZM780.968 225.606L762.152 177.606H777.704L793.16 221.382L780.968 225.606Z" fill="white"/>
<rect x="559.018" y="126.953" width="15" height="15" transform="rotate(20 559.018 126.953)" fill="white" fill-opacity="0.8"/>
<rect x="604.574" y="114" width="15" height="15" transform="rotate(40 604.574 114)" fill="white" fill-opacity="0.6"/>
<rect x="650.245" y="117.321" width="15" height="15" transform="rotate(60 650.245 117.321)" fill="white" fill-opacity="0.4"/>
<rect x="689.585" y="136.878" width="15" height="15" transform="rotate(80 689.585 136.878)" fill="white" fill-opacity="0.2"/>
<path d="M473.82 280.2C473.313 280.2 472.827 280.16 472.36 280.08C471.893 280.013 471.553 279.927 471.34 279.82V278.02C471.633 278.14 471.987 278.24 472.4 278.32C472.813 278.4 473.233 278.44 473.66 278.44C474.54 278.44 475.2 278.26 475.64 277.9C476.093 277.527 476.32 276.94 476.32 276.14V265.6H478.44V276.22C478.44 277.553 478.047 278.553 477.26 279.22C476.473 279.873 475.327 280.2 473.82 280.2ZM487.413 280C487.346 279.747 487.299 279.467 487.273 279.16C487.259 278.853 487.253 278.48 487.253 278.04H487.153V273.18C487.153 272.527 486.986 272.04 486.653 271.72C486.333 271.387 485.819 271.22 485.113 271.22C484.433 271.22 483.886 271.353 483.473 271.62C483.073 271.887 482.839 272.267 482.773 272.76H480.793C480.886 271.8 481.319 271.033 482.093 270.46C482.866 269.887 483.899 269.6 485.193 269.6C486.526 269.6 487.526 269.913 488.193 270.54C488.859 271.153 489.193 272.06 489.193 273.26V278.04C489.193 278.347 489.213 278.66 489.253 278.98C489.293 279.3 489.353 279.64 489.433 280H487.413ZM483.893 280.2C482.853 280.2 482.026 279.947 481.413 279.44C480.799 278.92 480.493 278.22 480.493 277.34C480.493 276.433 480.813 275.72 481.453 275.2C482.106 274.667 483.039 274.307 484.253 274.12L487.613 273.58V275.04L484.573 275.52C483.893 275.627 483.379 275.807 483.033 276.06C482.699 276.313 482.533 276.68 482.533 277.16C482.533 277.627 482.686 277.98 482.993 278.22C483.313 278.447 483.773 278.56 484.373 278.56C485.173 278.56 485.833 278.367 486.353 277.98C486.886 277.593 487.153 277.107 487.153 276.52L487.413 278C487.173 278.707 486.746 279.253 486.133 279.64C485.519 280.013 484.773 280.2 483.893 280.2ZM494.443 280L490.283 269.8H492.503L495.903 279.06H494.923L498.283 269.8H500.423L496.283 280H494.443ZM508.057 280C507.991 279.747 507.944 279.467 507.917 279.16C507.904 278.853 507.897 278.48 507.897 278.04H507.797V273.18C507.797 272.527 507.631 272.04 507.297 271.72C506.977 271.387 506.464 271.22 505.757 271.22C505.077 271.22 504.531 271.353 504.117 271.62C503.717 271.887 503.484 272.267 503.417 272.76H501.437C501.531 271.8 501.964 271.033 502.737 270.46C503.511 269.887 504.544 269.6 505.837 269.6C507.171 269.6 508.171 269.913 508.837 270.54C509.504 271.153 509.837 272.06 509.837 273.26V278.04C509.837 278.347 509.857 278.66 509.897 278.98C509.937 279.3 509.997 279.64 510.077 280H508.057ZM504.537 280.2C503.497 280.2 502.671 279.947 502.057 279.44C501.444 278.92 501.137 278.22 501.137 277.34C501.137 276.433 501.457 275.72 502.097 275.2C502.751 274.667 503.684 274.307 504.897 274.12L508.257 273.58V275.04L505.217 275.52C504.537 275.627 504.024 275.807 503.677 276.06C503.344 276.313 503.177 276.68 503.177 277.16C503.177 277.627 503.331 277.98 503.637 278.22C503.957 278.447 504.417 278.56 505.017 278.56C505.817 278.56 506.477 278.367 506.997 277.98C507.531 277.593 507.797 277.107 507.797 276.52L508.057 278C507.817 278.707 507.391 279.253 506.777 279.64C506.164 280.013 505.417 280.2 504.537 280.2ZM516.218 280.2C514.885 280.2 513.825 279.907 513.038 279.32C512.251 278.733 511.805 277.907 511.698 276.84H513.618C513.711 277.427 513.978 277.88 514.418 278.2C514.871 278.507 515.485 278.66 516.258 278.66C516.938 278.66 517.458 278.54 517.818 278.3C518.178 278.06 518.358 277.72 518.358 277.28C518.358 276.96 518.251 276.693 518.038 276.48C517.838 276.253 517.438 276.067 516.838 275.92L515.198 275.54C514.171 275.287 513.405 274.913 512.898 274.42C512.405 273.913 512.158 273.293 512.158 272.56C512.158 271.64 512.498 270.92 513.178 270.4C513.871 269.867 514.818 269.6 516.018 269.6C517.205 269.6 518.158 269.867 518.878 270.4C519.611 270.933 520.025 271.68 520.118 272.64H518.198C518.118 272.16 517.885 271.793 517.498 271.54C517.125 271.273 516.611 271.14 515.958 271.14C515.345 271.14 514.871 271.253 514.538 271.48C514.218 271.693 514.058 271.993 514.058 272.38C514.058 272.7 514.178 272.967 514.418 273.18C514.671 273.393 515.085 273.573 515.658 273.72L517.338 274.14C518.311 274.38 519.045 274.773 519.538 275.32C520.031 275.853 520.278 276.5 520.278 277.26C520.278 278.18 519.918 278.9 519.198 279.42C518.491 279.94 517.498 280.2 516.218 280.2ZM526.798 280.2C525.824 280.2 524.958 279.973 524.198 279.52C523.438 279.053 522.838 278.42 522.398 277.62C521.971 276.82 521.758 275.907 521.758 274.88C521.758 273.853 521.971 272.947 522.398 272.16C522.838 271.36 523.438 270.733 524.198 270.28C524.958 269.827 525.818 269.6 526.778 269.6C527.591 269.6 528.318 269.753 528.958 270.06C529.598 270.367 530.124 270.793 530.538 271.34C530.951 271.887 531.218 272.533 531.338 273.28H529.378C529.244 272.68 528.951 272.2 528.498 271.84C528.058 271.48 527.498 271.3 526.818 271.3C526.231 271.3 525.718 271.447 525.278 271.74C524.838 272.033 524.498 272.447 524.258 272.98C524.018 273.513 523.898 274.147 523.898 274.88C523.898 275.6 524.018 276.233 524.258 276.78C524.498 277.327 524.838 277.753 525.278 278.06C525.718 278.353 526.238 278.5 526.838 278.5C527.491 278.5 528.044 278.327 528.498 277.98C528.964 277.62 529.264 277.14 529.398 276.54H531.358C531.224 277.273 530.944 277.913 530.518 278.46C530.104 279.007 529.578 279.433 528.938 279.74C528.298 280.047 527.584 280.2 526.798 280.2ZM533.417 280V269.8H535.397V272.34H535.497V280H533.417ZM535.497 274.68L535.237 272.26C535.477 271.393 535.89 270.733 536.477 270.28C537.064 269.827 537.764 269.6 538.577 269.6C538.884 269.6 539.097 269.627 539.217 269.68V271.64C539.15 271.613 539.057 271.6 538.937 271.6C538.817 271.587 538.67 271.58 538.497 271.58C537.497 271.58 536.744 271.84 536.237 272.36C535.744 272.88 535.497 273.653 535.497 274.68ZM540.898 280V269.8H542.978V280H540.898ZM540.798 267.8V265.46H543.098V267.8H540.798ZM551.338 280.18C550.378 280.18 549.578 279.953 548.938 279.5C548.311 279.033 547.898 278.387 547.698 277.56L547.978 277.52V284.1H545.898V269.8H547.878V272.14L547.678 272.08C547.891 271.307 548.344 270.7 549.038 270.26C549.731 269.82 550.544 269.6 551.478 269.6C552.398 269.6 553.191 269.82 553.858 270.26C554.538 270.7 555.058 271.313 555.418 272.1C555.791 272.887 555.978 273.807 555.978 274.86C555.978 275.927 555.784 276.86 555.398 277.66C555.011 278.46 554.471 279.08 553.778 279.52C553.084 279.96 552.271 280.18 551.338 280.18ZM550.898 278.46C551.804 278.46 552.524 278.14 553.058 277.5C553.591 276.86 553.858 275.98 553.858 274.86C553.858 273.753 553.591 272.893 553.058 272.28C552.524 271.653 551.798 271.34 550.878 271.34C549.971 271.34 549.244 271.66 548.698 272.3C548.164 272.927 547.898 273.8 547.898 274.92C547.898 276.013 548.164 276.88 548.698 277.52C549.244 278.147 549.978 278.46 550.898 278.46ZM562.366 280.2C561.18 280.2 560.306 279.927 559.746 279.38C559.2 278.82 558.926 278 558.926 276.92V267.46L560.986 266.68V276.94C560.986 277.473 561.126 277.867 561.406 278.12C561.686 278.373 562.14 278.5 562.766 278.5C563.006 278.5 563.22 278.48 563.406 278.44C563.593 278.4 563.753 278.353 563.886 278.3V279.98C563.74 280.047 563.533 280.1 563.266 280.14C563 280.18 562.7 280.2 562.366 280.2ZM556.886 271.46V269.8H563.886V271.46H556.886ZM576.124 280C576.057 279.747 576.01 279.467 575.984 279.16C575.97 278.853 575.964 278.48 575.964 278.04H575.864V273.18C575.864 272.527 575.697 272.04 575.364 271.72C575.044 271.387 574.53 271.22 573.824 271.22C573.144 271.22 572.597 271.353 572.184 271.62C571.784 271.887 571.55 272.267 571.484 272.76H569.504C569.597 271.8 570.03 271.033 570.804 270.46C571.577 269.887 572.61 269.6 573.904 269.6C575.237 269.6 576.237 269.913 576.904 270.54C577.57 271.153 577.904 272.06 577.904 273.26V278.04C577.904 278.347 577.924 278.66 577.964 278.98C578.004 279.3 578.064 279.64 578.144 280H576.124ZM572.604 280.2C571.564 280.2 570.737 279.947 570.124 279.44C569.51 278.92 569.204 278.22 569.204 277.34C569.204 276.433 569.524 275.72 570.164 275.2C570.817 274.667 571.75 274.307 572.964 274.12L576.324 273.58V275.04L573.284 275.52C572.604 275.627 572.09 275.807 571.744 276.06C571.41 276.313 571.244 276.68 571.244 277.16C571.244 277.627 571.397 277.98 571.704 278.22C572.024 278.447 572.484 278.56 573.084 278.56C573.884 278.56 574.544 278.367 575.064 277.98C575.597 277.593 575.864 277.107 575.864 276.52L576.124 278C575.884 278.707 575.457 279.253 574.844 279.64C574.23 280.013 573.484 280.2 572.604 280.2ZM580.722 280V269.8H582.702V272.2H582.802V280H580.722ZM587.962 280V273.44C587.962 272.733 587.782 272.207 587.422 271.86C587.075 271.513 586.555 271.34 585.862 271.34C585.262 271.34 584.728 271.473 584.262 271.74C583.808 272.007 583.448 272.373 583.182 272.84C582.928 273.307 582.802 273.86 582.802 274.5L582.542 272.06C582.875 271.3 583.388 270.7 584.082 270.26C584.775 269.82 585.582 269.6 586.502 269.6C587.595 269.6 588.455 269.907 589.082 270.52C589.708 271.133 590.022 271.947 590.022 272.96V280H587.962ZM592.812 280V269.8H594.892V280H592.812ZM592.712 267.8V265.46H595.012V267.8H592.712ZM597.812 280V269.8H599.792V272.2H599.892V280H597.812ZM604.692 280V273.34C604.692 272.647 604.532 272.14 604.212 271.82C603.892 271.5 603.432 271.34 602.832 271.34C602.272 271.34 601.765 271.473 601.312 271.74C600.872 271.993 600.525 272.353 600.272 272.82C600.018 273.273 599.892 273.813 599.892 274.44L599.632 272.06C599.965 271.3 600.465 270.7 601.132 270.26C601.812 269.82 602.572 269.6 603.412 269.6C604.425 269.6 605.232 269.893 605.832 270.48C606.445 271.067 606.752 271.84 606.752 272.8V280H604.692ZM611.572 280V273.34C611.572 272.647 611.405 272.14 611.072 271.82C610.752 271.5 610.292 271.34 609.692 271.34C609.145 271.34 608.645 271.473 608.192 271.74C607.752 271.993 607.398 272.353 607.132 272.82C606.878 273.273 606.752 273.813 606.752 274.44L606.332 272.06C606.678 271.3 607.198 270.7 607.892 270.26C608.598 269.82 609.385 269.6 610.252 269.6C611.278 269.6 612.098 269.9 612.712 270.5C613.325 271.087 613.632 271.873 613.632 272.86V280H611.572ZM622.628 280C622.561 279.747 622.514 279.467 622.488 279.16C622.474 278.853 622.468 278.48 622.468 278.04H622.368V273.18C622.368 272.527 622.201 272.04 621.868 271.72C621.548 271.387 621.034 271.22 620.328 271.22C619.648 271.22 619.101 271.353 618.688 271.62C618.288 271.887 618.054 272.267 617.988 272.76H616.008C616.101 271.8 616.534 271.033 617.308 270.46C618.081 269.887 619.114 269.6 620.408 269.6C621.741 269.6 622.741 269.913 623.408 270.54C624.074 271.153 624.408 272.06 624.408 273.26V278.04C624.408 278.347 624.428 278.66 624.468 278.98C624.508 279.3 624.568 279.64 624.648 280H622.628ZM619.108 280.2C618.068 280.2 617.241 279.947 616.628 279.44C616.014 278.92 615.708 278.22 615.708 277.34C615.708 276.433 616.028 275.72 616.668 275.2C617.321 274.667 618.254 274.307 619.468 274.12L622.828 273.58V275.04L619.788 275.52C619.108 275.627 618.594 275.807 618.248 276.06C617.914 276.313 617.748 276.68 617.748 277.16C617.748 277.627 617.901 277.98 618.208 278.22C618.528 278.447 618.988 278.56 619.588 278.56C620.388 278.56 621.048 278.367 621.568 277.98C622.101 277.593 622.368 277.107 622.368 276.52L622.628 278C622.388 278.707 621.961 279.253 621.348 279.64C620.734 280.013 619.988 280.2 619.108 280.2ZM631.155 280.2C629.969 280.2 629.095 279.927 628.535 279.38C627.989 278.82 627.715 278 627.715 276.92V267.46L629.775 266.68V276.94C629.775 277.473 629.915 277.867 630.195 278.12C630.475 278.373 630.929 278.5 631.555 278.5C631.795 278.5 632.009 278.48 632.195 278.44C632.382 278.4 632.542 278.353 632.675 278.3V279.98C632.529 280.047 632.322 280.1 632.055 280.14C631.789 280.18 631.489 280.2 631.155 280.2ZM625.675 271.46V269.8H632.675V271.46H625.675ZM634.608 280V269.8H636.688V280H634.608ZM634.508 267.8V265.46H636.808V267.8H634.508ZM644.009 280.2C642.969 280.2 642.056 279.973 641.269 279.52C640.483 279.053 639.869 278.42 639.429 277.62C638.989 276.807 638.769 275.887 638.769 274.86C638.769 273.82 638.989 272.907 639.429 272.12C639.883 271.333 640.496 270.72 641.269 270.28C642.056 269.827 642.969 269.6 644.009 269.6C645.063 269.6 645.983 269.827 646.769 270.28C647.556 270.72 648.163 271.333 648.589 272.12C649.029 272.907 649.249 273.82 649.249 274.86C649.249 275.887 649.029 276.807 648.589 277.62C648.163 278.42 647.556 279.053 646.769 279.52C645.983 279.973 645.063 280.2 644.009 280.2ZM644.009 278.5C644.636 278.5 645.176 278.347 645.629 278.04C646.096 277.733 646.463 277.307 646.729 276.76C646.996 276.213 647.129 275.573 647.129 274.84C647.129 273.747 646.836 272.887 646.249 272.26C645.676 271.62 644.929 271.3 644.009 271.3C643.103 271.3 642.356 271.62 641.769 272.26C641.196 272.9 640.909 273.76 640.909 274.84C640.909 275.573 641.036 276.213 641.289 276.76C641.556 277.307 641.923 277.733 642.389 278.04C642.869 278.347 643.409 278.5 644.009 278.5ZM651.386 280V269.8H653.366V272.2H653.466V280H651.386ZM658.626 280V273.44C658.626 272.733 658.446 272.207 658.086 271.86C657.739 271.513 657.219 271.34 656.526 271.34C655.926 271.34 655.392 271.473 654.926 271.74C654.472 272.007 654.112 272.373 653.846 272.84C653.592 273.307 653.466 273.86 653.466 274.5L653.206 272.06C653.539 271.3 654.052 270.7 654.746 270.26C655.439 269.82 656.246 269.6 657.166 269.6C658.259 269.6 659.119 269.907 659.746 270.52C660.372 271.133 660.686 271.947 660.686 272.96V280H658.626ZM667.46 280V265.6H669.54V280H667.46ZM672.46 280V269.8H674.54V280H672.46ZM672.36 267.8V265.46H674.66V267.8H672.36ZM682.9 280.18C681.94 280.18 681.14 279.953 680.5 279.5C679.86 279.033 679.44 278.387 679.24 277.56L679.44 277.52V280H677.46V265.6H679.54V272.14L679.32 272.08C679.547 271.307 679.987 270.7 680.64 270.26C681.307 269.82 682.107 269.6 683.04 269.6C683.96 269.6 684.753 269.82 685.42 270.26C686.1 270.7 686.62 271.313 686.98 272.1C687.353 272.887 687.54 273.807 687.54 274.86C687.54 275.927 687.347 276.86 686.96 277.66C686.573 278.46 686.033 279.08 685.34 279.52C684.647 279.96 683.833 280.18 682.9 280.18ZM682.46 278.46C683.367 278.46 684.087 278.14 684.62 277.5C685.153 276.86 685.42 275.98 685.42 274.86C685.42 273.753 685.153 272.893 684.62 272.28C684.087 271.653 683.36 271.34 682.44 271.34C681.533 271.34 680.807 271.66 680.26 272.3C679.727 272.927 679.46 273.8 679.46 274.92C679.46 276.013 679.727 276.88 680.26 277.52C680.807 278.147 681.54 278.46 682.46 278.46ZM689.726 280V269.8H691.706V272.34H691.806V280H689.726ZM691.806 274.68L691.546 272.26C691.786 271.393 692.199 270.733 692.786 270.28C693.372 269.827 694.072 269.6 694.886 269.6C695.192 269.6 695.406 269.627 695.526 269.68V271.64C695.459 271.613 695.366 271.6 695.246 271.6C695.126 271.587 694.979 271.58 694.806 271.58C693.806 271.58 693.052 271.84 692.546 272.36C692.052 272.88 691.806 273.653 691.806 274.68ZM703.389 280C703.323 279.747 703.276 279.467 703.249 279.16C703.236 278.853 703.229 278.48 703.229 278.04H703.129V273.18C703.129 272.527 702.963 272.04 702.629 271.72C702.309 271.387 701.796 271.22 701.089 271.22C700.409 271.22 699.863 271.353 699.449 271.62C699.049 271.887 698.816 272.267 698.749 272.76H696.769C696.863 271.8 697.296 271.033 698.069 270.46C698.843 269.887 699.876 269.6 701.169 269.6C702.503 269.6 703.503 269.913 704.169 270.54C704.836 271.153 705.169 272.06 705.169 273.26V278.04C705.169 278.347 705.189 278.66 705.229 278.98C705.269 279.3 705.329 279.64 705.409 280H703.389ZM699.869 280.2C698.829 280.2 698.003 279.947 697.389 279.44C696.776 278.92 696.469 278.22 696.469 277.34C696.469 276.433 696.789 275.72 697.429 275.2C698.083 274.667 699.016 274.307 700.229 274.12L703.589 273.58V275.04L700.549 275.52C699.869 275.627 699.356 275.807 699.009 276.06C698.676 276.313 698.509 276.68 698.509 277.16C698.509 277.627 698.663 277.98 698.969 278.22C699.289 278.447 699.749 278.56 700.349 278.56C701.149 278.56 701.809 278.367 702.329 277.98C702.863 277.593 703.129 277.107 703.129 276.52L703.389 278C703.149 278.707 702.723 279.253 702.109 279.64C701.496 280.013 700.749 280.2 699.869 280.2ZM707.987 280V269.8H709.967V272.34H710.067V280H707.987ZM710.067 274.68L709.807 272.26C710.047 271.393 710.461 270.733 711.047 270.28C711.634 269.827 712.334 269.6 713.147 269.6C713.454 269.6 713.667 269.627 713.787 269.68V271.64C713.721 271.613 713.627 271.6 713.507 271.6C713.387 271.587 713.241 271.58 713.067 271.58C712.067 271.58 711.314 271.84 710.807 272.36C710.314 272.88 710.067 273.653 710.067 274.68ZM716.521 284.1L718.981 278.48L719.401 277.82L722.501 269.8H724.661L718.661 284.1H716.521ZM718.881 280L714.521 269.8H716.781L720.481 278.98L718.881 280ZM724.549 280V277.52H727.009V280H724.549Z" fill="white"/>
</svg>
